<mxfile host="app.diagrams.net" modified="2022-06-17T06:34:42.346Z" agent="5.0 (Windows NT 10.0; Win64; x64) AppleWebKit/537.36 (KHTML, like Gecko) Chrome/102.0.5005.124 Safari/537.36 Edg/102.0.1245.41" etag="JIme5mo8Wd7JZjYDQbQB" version="20.0.1" type="github">
  <diagram id="Qar00QR1e4j2eE_HeEWa" name="Page-1">
    <mxGraphModel dx="577" dy="299" grid="1" gridSize="1" guides="1" tooltips="1" connect="1" arrows="1" fold="1" page="1" pageScale="1" pageWidth="827" pageHeight="1169" background="none" math="1" shadow="0">
      <root>
        <mxCell id="0" />
        <mxCell id="1" parent="0" />
        <mxCell id="YP-jl6lNTAO6UAwj0qNz-1" value="" style="whiteSpace=wrap;html=1;aspect=fixed;rounded=0;sketch=0;" vertex="1" parent="1">
          <mxGeometry x="60" y="80" width="50" height="50" as="geometry" />
        </mxCell>
        <mxCell id="YP-jl6lNTAO6UAwj0qNz-2" value="" style="whiteSpace=wrap;html=1;aspect=fixed;rounded=0;sketch=0;" vertex="1" parent="1">
          <mxGeometry x="70" y="90" width="50" height="50" as="geometry" />
        </mxCell>
        <mxCell id="YP-jl6lNTAO6UAwj0qNz-3" value="" style="whiteSpace=wrap;html=1;aspect=fixed;rounded=0;sketch=0;" vertex="1" parent="1">
          <mxGeometry x="80" y="100" width="50" height="50" as="geometry" />
        </mxCell>
        <mxCell id="YP-jl6lNTAO6UAwj0qNz-4" value="" style="whiteSpace=wrap;html=1;aspect=fixed;rounded=0;sketch=0;" vertex="1" parent="1">
          <mxGeometry x="180" y="40" width="30" height="30" as="geometry" />
        </mxCell>
        <mxCell id="YP-jl6lNTAO6UAwj0qNz-5" value="" style="whiteSpace=wrap;html=1;aspect=fixed;rounded=0;sketch=0;" vertex="1" parent="1">
          <mxGeometry x="188" y="46" width="30" height="30" as="geometry" />
        </mxCell>
        <mxCell id="YP-jl6lNTAO6UAwj0qNz-6" value="" style="whiteSpace=wrap;html=1;aspect=fixed;rounded=0;sketch=0;" vertex="1" parent="1">
          <mxGeometry x="195" y="55" width="30" height="30" as="geometry" />
        </mxCell>
        <mxCell id="YP-jl6lNTAO6UAwj0qNz-7" value="" style="whiteSpace=wrap;html=1;aspect=fixed;rounded=0;sketch=0;" vertex="1" parent="1">
          <mxGeometry x="181.5" y="105" width="30" height="30" as="geometry" />
        </mxCell>
        <mxCell id="YP-jl6lNTAO6UAwj0qNz-8" value="" style="whiteSpace=wrap;html=1;aspect=fixed;rounded=0;sketch=0;" vertex="1" parent="1">
          <mxGeometry x="189.5" y="111" width="30" height="30" as="geometry" />
        </mxCell>
        <mxCell id="YP-jl6lNTAO6UAwj0qNz-9" value="" style="whiteSpace=wrap;html=1;aspect=fixed;rounded=0;sketch=0;" vertex="1" parent="1">
          <mxGeometry x="196.5" y="120" width="30" height="30" as="geometry" />
        </mxCell>
        <mxCell id="YP-jl6lNTAO6UAwj0qNz-10" value="" style="whiteSpace=wrap;html=1;aspect=fixed;rounded=0;sketch=0;" vertex="1" parent="1">
          <mxGeometry x="181" y="166" width="30" height="30" as="geometry" />
        </mxCell>
        <mxCell id="YP-jl6lNTAO6UAwj0qNz-11" value="" style="whiteSpace=wrap;html=1;aspect=fixed;rounded=0;sketch=0;" vertex="1" parent="1">
          <mxGeometry x="189" y="172" width="30" height="30" as="geometry" />
        </mxCell>
        <mxCell id="YP-jl6lNTAO6UAwj0qNz-12" value="" style="whiteSpace=wrap;html=1;aspect=fixed;rounded=0;sketch=0;" vertex="1" parent="1">
          <mxGeometry x="196" y="181" width="30" height="30" as="geometry" />
        </mxCell>
        <mxCell id="YP-jl6lNTAO6UAwj0qNz-13" value="" style="whiteSpace=wrap;html=1;aspect=fixed;rounded=0;sketch=0;" vertex="1" parent="1">
          <mxGeometry x="260" y="40" width="50" height="50" as="geometry" />
        </mxCell>
        <mxCell id="YP-jl6lNTAO6UAwj0qNz-14" value="" style="whiteSpace=wrap;html=1;aspect=fixed;rounded=0;sketch=0;" vertex="1" parent="1">
          <mxGeometry x="260" y="105" width="50" height="50" as="geometry" />
        </mxCell>
        <mxCell id="YP-jl6lNTAO6UAwj0qNz-15" value="" style="whiteSpace=wrap;html=1;aspect=fixed;rounded=0;sketch=0;" vertex="1" parent="1">
          <mxGeometry x="260" y="166" width="50" height="50" as="geometry" />
        </mxCell>
        <mxCell id="YP-jl6lNTAO6UAwj0qNz-16" value="" style="whiteSpace=wrap;html=1;aspect=fixed;rounded=0;sketch=0;" vertex="1" parent="1">
          <mxGeometry x="397" y="81" width="50" height="50" as="geometry" />
        </mxCell>
        <mxCell id="YP-jl6lNTAO6UAwj0qNz-17" value="" style="whiteSpace=wrap;html=1;aspect=fixed;rounded=0;sketch=0;" vertex="1" parent="1">
          <mxGeometry x="407" y="91" width="50" height="50" as="geometry" />
        </mxCell>
        <mxCell id="YP-jl6lNTAO6UAwj0qNz-18" value="" style="whiteSpace=wrap;html=1;aspect=fixed;rounded=0;sketch=0;" vertex="1" parent="1">
          <mxGeometry x="417" y="101" width="50" height="50" as="geometry" />
        </mxCell>
        <mxCell id="YP-jl6lNTAO6UAwj0qNz-19" value="image" style="text;html=1;strokeColor=none;fillColor=none;align=center;verticalAlign=middle;whiteSpace=wrap;rounded=0;sketch=0;" vertex="1" parent="1">
          <mxGeometry x="70" y="155" width="40" height="14" as="geometry" />
        </mxCell>
        <mxCell id="YP-jl6lNTAO6UAwj0qNz-20" value="&lt;font style=&quot;font-size: 12px;&quot;&gt;kernel 3&lt;/font&gt;" style="text;html=1;strokeColor=none;fillColor=none;align=center;verticalAlign=middle;whiteSpace=wrap;rounded=0;sketch=0;fontSize=8;" vertex="1" parent="1">
          <mxGeometry x="176.5" y="211" width="55" height="14" as="geometry" />
        </mxCell>
        <mxCell id="YP-jl6lNTAO6UAwj0qNz-22" value="&lt;span style=&quot;font-size: 8px;&quot;&gt;kernel 2&lt;/span&gt;" style="text;html=1;strokeColor=none;fillColor=none;align=center;verticalAlign=middle;whiteSpace=wrap;rounded=0;sketch=0;fontSize=10;fontColor=default;labelBackgroundColor=default;labelBorderColor=none;spacing=2;" vertex="1" parent="1">
          <mxGeometry x="178" y="150" width="50" height="16" as="geometry" />
        </mxCell>
        <mxCell id="YP-jl6lNTAO6UAwj0qNz-24" value="&lt;font style=&quot;font-size: 8px;&quot;&gt;&lt;font style=&quot;&quot;&gt;kernel&lt;/font&gt; 1&lt;/font&gt;" style="text;html=1;strokeColor=none;fillColor=none;align=center;verticalAlign=middle;whiteSpace=wrap;rounded=0;sketch=0;fontSize=10;fontColor=default;labelBackgroundColor=default;labelBorderColor=none;spacing=2;" vertex="1" parent="1">
          <mxGeometry x="176.5" y="85" width="50" height="16" as="geometry" />
        </mxCell>
        <mxCell id="YP-jl6lNTAO6UAwj0qNz-25" value="&lt;span style=&quot;font-size: 8px;&quot;&gt;Feature 1&lt;/span&gt;" style="text;html=1;strokeColor=none;fillColor=none;align=center;verticalAlign=middle;whiteSpace=wrap;rounded=0;sketch=0;fontSize=10;fontColor=default;labelBackgroundColor=default;labelBorderColor=none;spacing=2;" vertex="1" parent="1">
          <mxGeometry x="272" y="53" width="67" height="16" as="geometry" />
        </mxCell>
        <mxCell id="YP-jl6lNTAO6UAwj0qNz-26" value="&lt;span style=&quot;font-size: 8px;&quot;&gt;Feature 2&lt;/span&gt;" style="text;html=1;strokeColor=none;fillColor=none;align=center;verticalAlign=middle;whiteSpace=wrap;rounded=0;sketch=0;fontSize=10;fontColor=default;labelBackgroundColor=default;labelBorderColor=none;spacing=2;" vertex="1" parent="1">
          <mxGeometry x="271" y="126" width="67" height="16" as="geometry" />
        </mxCell>
        <mxCell id="YP-jl6lNTAO6UAwj0qNz-27" value="&lt;span style=&quot;font-size: 8px;&quot;&gt;Feature 3&lt;/span&gt;" style="text;html=1;strokeColor=none;fillColor=none;align=center;verticalAlign=middle;whiteSpace=wrap;rounded=0;sketch=0;fontSize=10;fontColor=default;labelBackgroundColor=default;labelBorderColor=none;spacing=2;" vertex="1" parent="1">
          <mxGeometry x="271" y="185" width="67" height="16" as="geometry" />
        </mxCell>
        <mxCell id="YP-jl6lNTAO6UAwj0qNz-29" value="" style="shape=flexArrow;endArrow=classic;html=1;rounded=1;sketch=0;fontSize=8;fontColor=default;curved=0;" edge="1" parent="1">
          <mxGeometry width="50" height="50" relative="1" as="geometry">
            <mxPoint x="133" y="124" as="sourcePoint" />
            <mxPoint x="173" y="124" as="targetPoint" />
          </mxGeometry>
        </mxCell>
        <mxCell id="YP-jl6lNTAO6UAwj0qNz-30" value="" style="endArrow=classic;html=1;rounded=1;sketch=0;fontSize=8;fontColor=default;curved=0;" edge="1" parent="1">
          <mxGeometry width="50" height="50" relative="1" as="geometry">
            <mxPoint x="228" y="64" as="sourcePoint" />
            <mxPoint x="259" y="64" as="targetPoint" />
          </mxGeometry>
        </mxCell>
        <mxCell id="YP-jl6lNTAO6UAwj0qNz-31" value="" style="endArrow=classic;html=1;rounded=1;sketch=0;fontSize=8;fontColor=default;curved=0;" edge="1" parent="1">
          <mxGeometry width="50" height="50" relative="1" as="geometry">
            <mxPoint x="228" y="131" as="sourcePoint" />
            <mxPoint x="259" y="131" as="targetPoint" />
          </mxGeometry>
        </mxCell>
        <mxCell id="YP-jl6lNTAO6UAwj0qNz-32" value="" style="endArrow=classic;html=1;rounded=1;sketch=0;fontSize=8;fontColor=default;curved=0;" edge="1" parent="1">
          <mxGeometry width="50" height="50" relative="1" as="geometry">
            <mxPoint x="228" y="192.81" as="sourcePoint" />
            <mxPoint x="259" y="192.81" as="targetPoint" />
          </mxGeometry>
        </mxCell>
        <mxCell id="YP-jl6lNTAO6UAwj0qNz-33" value="" style="shape=flexArrow;endArrow=classic;html=1;rounded=1;sketch=0;fontSize=8;fontColor=default;curved=0;entryX=-0.06;entryY=0.858;entryDx=0;entryDy=0;entryPerimeter=0;" edge="1" parent="1" target="YP-jl6lNTAO6UAwj0qNz-16">
          <mxGeometry width="50" height="50" relative="1" as="geometry">
            <mxPoint x="328" y="123" as="sourcePoint" />
            <mxPoint x="368" y="123" as="targetPoint" />
          </mxGeometry>
        </mxCell>
        <mxCell id="YP-jl6lNTAO6UAwj0qNz-50" value="`1xx416xx416xx3`" style="text;html=1;strokeColor=none;fillColor=none;align=center;verticalAlign=middle;whiteSpace=wrap;rounded=0;labelBackgroundColor=default;labelBorderColor=none;sketch=0;fontSize=8;fontColor=default;" vertex="1" parent="1">
          <mxGeometry x="30" y="169" width="114" height="29" as="geometry" />
        </mxCell>
        <mxCell id="YP-jl6lNTAO6UAwj0qNz-51" value="`32xx3xx3xx3`" style="text;html=1;strokeColor=none;fillColor=none;align=center;verticalAlign=middle;whiteSpace=wrap;rounded=0;labelBackgroundColor=default;labelBorderColor=none;sketch=0;fontSize=8;fontColor=default;" vertex="1" parent="1">
          <mxGeometry x="144.5" y="230" width="114" height="29" as="geometry" />
        </mxCell>
        <mxCell id="YP-jl6lNTAO6UAwj0qNz-52" value="`1xx416xx416xx1`" style="text;html=1;strokeColor=none;fillColor=none;align=center;verticalAlign=middle;whiteSpace=wrap;rounded=0;labelBackgroundColor=default;labelBorderColor=none;sketch=0;fontSize=8;fontColor=default;" vertex="1" parent="1">
          <mxGeometry x="279" y="200" width="114" height="29" as="geometry" />
        </mxCell>
        <mxCell id="YP-jl6lNTAO6UAwj0qNz-53" value="`1xx416xx416xx1`" style="text;html=1;strokeColor=none;fillColor=none;align=center;verticalAlign=middle;whiteSpace=wrap;rounded=0;labelBackgroundColor=default;labelBorderColor=none;sketch=0;fontSize=8;fontColor=default;" vertex="1" parent="1">
          <mxGeometry x="274" y="140" width="114" height="29" as="geometry" />
        </mxCell>
        <mxCell id="YP-jl6lNTAO6UAwj0qNz-54" value="`1xx416xx416xx1`" style="text;html=1;strokeColor=none;fillColor=none;align=center;verticalAlign=middle;whiteSpace=wrap;rounded=0;labelBackgroundColor=default;labelBorderColor=none;sketch=0;fontSize=8;fontColor=default;" vertex="1" parent="1">
          <mxGeometry x="275" y="66" width="114" height="29" as="geometry" />
        </mxCell>
        <mxCell id="YP-jl6lNTAO6UAwj0qNz-55" value="`3xx416xx416xx1`" style="text;html=1;strokeColor=none;fillColor=none;align=center;verticalAlign=middle;whiteSpace=wrap;rounded=0;labelBackgroundColor=default;labelBorderColor=none;sketch=0;fontSize=8;fontColor=default;" vertex="1" parent="1">
          <mxGeometry x="422" y="129" width="114" height="29" as="geometry" />
        </mxCell>
        <mxCell id="YP-jl6lNTAO6UAwj0qNz-56" value="`1xx416xx416xx3`" style="text;html=1;strokeColor=none;fillColor=none;align=center;verticalAlign=middle;whiteSpace=wrap;rounded=0;labelBackgroundColor=default;labelBorderColor=none;sketch=0;fontSize=8;fontColor=default;" vertex="1" parent="1">
          <mxGeometry x="426" y="194" width="114" height="29" as="geometry" />
        </mxCell>
        <mxCell id="YP-jl6lNTAO6UAwj0qNz-57" value="" style="shape=flexArrow;endArrow=classic;html=1;rounded=1;sketch=0;fontSize=8;fontColor=default;curved=0;endWidth=11.108707409410492;endSize=3.7348837209302324;width=5.116279069767442;" edge="1" parent="1" source="YP-jl6lNTAO6UAwj0qNz-55" target="YP-jl6lNTAO6UAwj0qNz-56">
          <mxGeometry width="50" height="50" relative="1" as="geometry">
            <mxPoint x="479" y="157" as="sourcePoint" />
            <mxPoint x="529" y="107" as="targetPoint" />
          </mxGeometry>
        </mxCell>
        <mxCell id="YP-jl6lNTAO6UAwj0qNz-58" value="Transfer" style="text;html=1;strokeColor=none;fillColor=none;align=center;verticalAlign=middle;whiteSpace=wrap;rounded=0;labelBackgroundColor=default;labelBorderColor=none;sketch=0;fontSize=8;fontColor=default;" vertex="1" parent="1">
          <mxGeometry x="485" y="156" width="60" height="30" as="geometry" />
        </mxCell>
      </root>
    </mxGraphModel>
  </diagram>
</mxfile>
